<?xml version="1.0" standalone="no"?>
<!DOCTYPE svg PUBLIC "-//W3C//DTD SVG 20010904//EN"
 "http://www.w3.org/TR/2001/REC-SVG-20010904/DTD/svg10.dtd">
<svg version="1.0" xmlns="http://www.w3.org/2000/svg"
 width="1667.000000pt" height="1667.000000pt" viewBox="0 0 1667.000000 1667.000000"
 preserveAspectRatio="xMidYMid meet">
<metadata>
Created by potrace 1.11, written by Peter Selinger 2001-2013
</metadata>
<g transform="translate(0.000000,1667.000000) scale(0.100000,-0.100000)"
fill="#000000" stroke="none">
<path d="M8048 16535 c-2 -2 -69 -6 -150 -10 -81 -4 -160 -8 -175 -10 -15 -2
-68 -6 -118 -10 -49 -4 -103 -8 -120 -10 -16 -2 -57 -6 -90 -9 -33 -4 -94 -11
-135 -17 -41 -6 -91 -13 -110 -15 -19 -3 -46 -7 -60 -9 -14 -3 -38 -7 -55 -9
-51 -7 -119 -18 -140 -22 -10 -2 -37 -6 -59 -10 -22 -3 -43 -7 -46 -9 -3 -2
-21 -6 -40 -9 -40 -6 -123 -23 -160 -31 -14 -4 -38 -8 -55 -11 -16 -3 -48 -10
-70 -16 -22 -5 -47 -11 -55 -13 -108 -21 -652 -175 -750 -212 -8 -3 -19 -7
-25 -9 -50 -15 -412 -151 -483 -182 -20 -8 -41 -17 -47 -18 -23 -5 -322 -142
-470 -215 -296 -146 -466 -240 -755 -421 -207 -129 -553 -369 -660 -457 -28
-23 -27 -22 -90 -71 -25 -19 -47 -37 -50 -40 -3 -3 -27 -23 -55 -45 -66 -52
-77 -62 -235 -201 -210 -184 -407 -376 -580 -563 -52 -57 -106 -115 -120 -130
-14 -14 -48 -53 -75 -86 -28 -33 -54 -65 -60 -71 -5 -6 -28 -32 -50 -59 -22
-26 -45 -53 -50 -59 -6 -6 -35 -42 -65 -81 -30 -38 -57 -72 -60 -75 -8 -7
-137 -181 -214 -288 -89 -123 -276 -409 -276 -421 0 -5 -4 -11 -8 -13 -9 -4
-170 -278 -262 -448 -56 -104 -230 -455 -230 -464 0 -5 -57 -134 -69 -157 -5
-8 -21 -47 -36 -85 -15 -38 -33 -82 -41 -99 -7 -16 -29 -75 -49 -130 -20 -55
-43 -113 -50 -130 -12 -28 -26 -67 -31 -90 -2 -5 -28 -86 -59 -180 -52 -159
-148 -495 -160 -563 -3 -17 -10 -44 -16 -59 -6 -15 -10 -30 -10 -33 1 -4 -9
-59 -14 -80 -1 -3 -5 -23 -10 -45 -4 -22 -10 -49 -12 -60 -2 -11 -6 -31 -9
-45 -2 -14 -9 -45 -14 -70 -5 -25 -12 -58 -15 -75 -2 -16 -7 -41 -9 -55 -3
-14 -8 -41 -10 -60 -3 -19 -7 -44 -10 -55 -2 -11 -7 -42 -10 -68 -4 -27 -9
-56 -11 -65 -1 -10 -6 -46 -10 -82 -4 -36 -8 -72 -10 -81 -2 -8 -6 -49 -10
-90 -4 -41 -9 -87 -10 -104 -42 -396 -49 -863 -20 -1350 2 -38 6 -97 10 -130
3 -33 8 -87 11 -120 6 -69 12 -125 19 -175 2 -19 7 -55 10 -80 3 -25 8 -56 10
-70 2 -14 7 -45 10 -70 4 -25 8 -58 11 -75 3 -16 7 -41 9 -55 2 -14 8 -52 14
-85 10 -55 13 -71 25 -124 2 -10 7 -34 10 -52 3 -19 8 -45 11 -59 4 -14 8 -38
11 -55 3 -16 10 -48 16 -70 5 -22 12 -51 14 -65 3 -14 9 -39 15 -57 5 -17 12
-44 15 -60 10 -60 124 -458 169 -588 93 -270 98 -283 177 -480 104 -262 303
-681 408 -860 16 -27 34 -60 40 -73 33 -75 390 -642 427 -680 7 -8 18 -23 24
-35 7 -11 16 -26 21 -31 8 -10 68 -92 106 -145 9 -13 35 -47 57 -75 22 -28 59
-76 82 -106 23 -30 50 -64 60 -75 10 -11 35 -41 56 -67 21 -26 43 -53 50 -60
7 -8 36 -43 66 -78 30 -36 69 -81 87 -100 18 -19 61 -66 96 -105 91 -100 388
-395 499 -496 393 -358 785 -654 1249 -942 141 -88 163 -100 350 -205 183
-102 536 -277 684 -338 33 -15 79 -34 101 -44 220 -95 768 -292 878 -314 19
-4 77 -20 252 -71 41 -12 179 -46 245 -60 8 -2 49 -11 90 -20 41 -10 82 -18
90 -20 25 -4 100 -18 148 -29 9 -2 37 -7 62 -11 25 -4 54 -9 65 -11 11 -3 36
-7 55 -10 19 -2 46 -7 60 -10 47 -9 75 -13 125 -19 28 -3 64 -7 80 -10 48 -7
102 -15 153 -20 26 -3 65 -7 87 -10 22 -2 72 -7 110 -10 39 -3 88 -8 111 -10
38 -4 119 -9 349 -20 99 -5 547 -5 665 0 92 3 294 15 335 19 17 2 64 7 105 10
41 4 91 9 110 11 19 2 60 7 90 10 84 9 132 15 160 20 14 3 45 7 70 10 25 3 83
12 130 20 47 7 101 16 120 19 19 3 46 8 60 11 42 8 134 26 155 30 55 9 127 25
365 80 8 2 51 13 95 25 44 12 91 24 104 26 14 3 28 7 33 10 4 3 34 12 65 20
128 33 602 191 698 233 11 5 52 21 90 36 98 39 251 103 310 130 189 86 422
200 543 266 227 125 329 184 507 296 274 172 569 383 800 572 84 68 192 159
205 171 9 8 34 30 55 48 181 152 516 486 740 736 50 57 132 152 150 175 10 14
22 28 26 31 13 11 172 213 262 335 53 72 100 135 105 140 4 6 46 66 93 135
142 208 235 359 435 710 89 157 286 574 374 790 12 30 28 69 35 85 73 165 262
743 310 945 2 8 12 51 24 95 11 44 22 91 25 105 2 14 12 59 21 100 9 41 19 86
21 100 3 14 14 70 25 125 11 55 22 109 24 120 1 11 5 34 8 50 5 29 15 95 22
145 2 14 7 45 10 69 4 24 9 58 10 75 2 17 6 49 9 71 3 22 9 63 11 90 3 28 7
66 10 85 16 149 20 300 20 830 0 333 -3 632 -8 665 -4 33 -9 89 -12 125 -3 35
-7 76 -10 90 -2 14 -7 54 -10 90 -3 36 -8 72 -10 80 -3 8 -7 38 -10 65 -6 50
-8 64 -20 140 -5 36 -18 108 -31 182 -24 133 -66 332 -100 468 -8 33 -17 71
-20 85 -3 14 -9 40 -15 58 -6 18 -12 39 -13 45 -32 160 -253 808 -345 1010
-12 25 -21 48 -21 51 0 2 -14 35 -31 73 -171 380 -387 789 -563 1063 -180 280
-353 526 -491 698 -7 9 -34 43 -60 75 -70 88 -75 94 -154 186 -251 294 -507
557 -780 801 -46 41 -94 84 -107 95 -35 32 -64 56 -149 125 -44 36 -82 67 -85
70 -7 8 -175 138 -245 190 -391 291 -787 535 -1225 757 -107 54 -224 111 -260
127 -36 16 -96 44 -135 61 -97 45 -493 202 -530 211 -16 4 -34 10 -40 14 -5 4
-41 17 -80 29 -38 13 -79 26 -90 31 -19 9 -240 77 -280 87 -11 3 -27 7 -35 10
-8 3 -24 8 -35 10 -11 2 -31 7 -45 13 -24 9 -205 56 -246 64 -11 2 -39 9 -64
16 -25 7 -55 14 -68 16 -13 3 -76 16 -140 30 -64 14 -129 27 -144 29 -15 2
-35 6 -45 9 -18 5 -47 10 -118 21 -23 3 -52 8 -65 11 -14 2 -41 7 -60 10 -19
2 -42 6 -50 9 -8 2 -46 7 -85 11 -38 3 -72 8 -75 9 -3 2 -37 6 -75 10 -39 4
-77 9 -86 10 -9 2 -52 6 -95 10 -43 4 -90 8 -104 10 -23 4 -79 8 -275 21 -87
6 -772 13 -777 9z"/>
</g>
</svg>
