<?xml version="1.0" standalone="no"?>
<!DOCTYPE svg PUBLIC "-//W3C//DTD SVG 20010904//EN"
 "http://www.w3.org/TR/2001/REC-SVG-20010904/DTD/svg10.dtd">
<svg version="1.0" xmlns="http://www.w3.org/2000/svg"
 width="512.000000pt" height="512.000000pt" viewBox="0 0 512.000000 512.000000"
 preserveAspectRatio="xMidYMid meet">
<metadata>
Created by potrace 1.11, written by Peter Selinger 2001-2013
</metadata>
<g transform="translate(0.000000,512.000000) scale(0.100000,-0.100000)"
fill="#000000" stroke="none">
<path d="M2388 5075 c-2 -1 -37 -5 -78 -9 -41 -3 -86 -8 -100 -11 -14 -2 -41
-7 -60 -9 -202 -28 -479 -113 -690 -213 -148 -70 -364 -202 -471 -287 -15 -12
-41 -32 -58 -46 -120 -94 -301 -281 -407 -420 -27 -36 -51 -67 -54 -70 -17
-15 -139 -217 -184 -304 -68 -129 -185 -416 -170 -416 3 0 0 -9 -6 -21 -7 -11
-14 -33 -16 -47 -3 -15 -12 -51 -20 -80 -9 -29 -17 -67 -19 -85 -2 -18 -4 -32
-5 -32 -3 0 -16 -72 -26 -150 -22 -176 -22 -507 0 -632 2 -10 7 -40 10 -68 11
-78 54 -261 83 -355 22 -73 36 -112 82 -225 4 -11 36 -76 69 -145 78 -160 187
-329 314 -485 78 -96 236 -253 331 -330 21 -16 50 -40 65 -53 15 -12 65 -48
112 -80 47 -31 87 -59 90 -62 8 -9 138 -83 210 -120 56 -29 172 -81 215 -97
22 -8 49 -19 60 -23 54 -23 258 -84 318 -96 12 -2 45 -8 72 -14 99 -20 134
-26 240 -36 206 -21 423 -17 645 12 138 18 407 86 510 128 19 8 62 25 95 37
80 31 267 124 333 166 29 18 55 33 57 33 5 0 204 140 228 160 7 6 23 20 37 31
111 91 258 237 337 334 26 33 53 65 59 70 14 12 171 245 195 290 51 93 93 175
125 248 41 91 111 292 119 339 3 17 8 34 10 38 10 16 53 239 62 323 10 93 10
514 0 592 -44 347 -156 678 -321 955 -28 47 -55 93 -61 102 -67 114 -262 351
-364 442 -19 17 -48 45 -65 61 -168 162 -497 372 -725 461 -36 15 -79 32 -96
39 -92 40 -370 115 -475 129 -19 2 -57 7 -85 11 -27 3 -61 9 -75 11 -27 6
-446 14 -452 9z"/>
</g>
</svg>
